<svg width="47px" height="47px" viewBox="0 0 47 47" version="1.1" xmlns="http://www.w3.org/2000/svg" xmlns:xlink="http://www.w3.org/1999/xlink">
    <g id="Funnels-2020" stroke="none" stroke-width="1" fill="none" fill-rule="evenodd">
        <g id="Resultat_1_privat" transform="translate(-257.000000, -364.000000)" stroke="#FF0033">
            <g id="Group-3" transform="translate(253.000000, 365.000000)">
                <g id="sos" transform="translate(5.000000, 0.000000)">
                    <path d="M15.85125,15.897375 C15.9165,15.845625 22.386375,10.7685 29.25,16.07625 C29.3445,16.147125 29.4525,16.182 29.561625,16.182 C29.7135,16.182 29.8665,16.1145 29.966625,15.984 C30.139875,15.760125 30.09825,15.4395 29.874375,15.267375 C22.384125,9.477 15.283125,15.044625 15.21225,15.100875 C14.99175,15.278625 14.956875,15.600375 15.134625,15.81975 C15.31125,16.041375 15.631875,16.07625 15.8535,15.8985 L15.85125,15.897375 Z" id="Path" stroke-width="0.5" fill="#FF0033" fill-rule="nonzero"></path>
                    <path d="M27.790875,17.517375 C22.35375,13.3515 17.166375,17.485875 17.1135,17.5275 C16.894125,17.706375 16.86375,18.027 17.040375,18.2475 C17.220375,18.46575 17.541,18.498375 17.75925,18.318375 C17.8065,18.282375 22.36725,14.64975 27.169875,18.3285 C27.26325,18.4005 27.37125,18.43425 27.480375,18.43425 C27.633375,18.43425 27.786375,18.365625 27.8865,18.234 C28.056375,18.010125 28.013625,17.6895 27.790875,17.517375 Z" id="Path" stroke-width="0.5" fill="#FF0033" fill-rule="nonzero"></path>
                    <path d="M20.08125,20.566125 C20.102625,20.550375 22.255875,18.88875 24.858,20.471625 C25.097625,20.615625 25.4115,20.54025 25.561125,20.2995 C25.707375,20.057625 25.630875,19.74375 25.387875,19.5975 C22.18725,17.652375 19.476,19.742625 19.44675,19.764 C19.227375,19.938375 19.188,20.260125 19.362375,20.480625 C19.463625,20.60775 19.61325,20.67525 19.765125,20.67525 C19.875375,20.67525 19.98675,20.63925 20.08125,20.565 L20.08125,20.566125 Z" id="Path" stroke-width="0.5" fill="#FF0033" fill-rule="nonzero"></path>
                    <path d="M14.89725,25.990875 C13.428,25.641 13.078125,25.38 13.078125,24.7905 L13.078125,24.769125 C13.078125,24.26625 13.537125,23.864625 14.32125,23.864625 C14.91975,23.864625 15.48675,24.062625 16.07625,24.44175 C16.18425,24.505875 16.293375,24.539625 16.42275,24.539625 C16.772625,24.539625 17.055,24.26625 17.055,23.9175 C17.055,23.6565 16.914375,23.472 16.761375,23.380875 C16.07625,22.92525 15.301125,22.6755 14.342625,22.6755 C12.82725,22.6755 11.736,23.578875 11.736,24.886125 L11.736,24.9075 C11.736,26.314875 12.654,26.793 14.275125,27.1845 C15.69375,27.513 15.998625,27.806625 15.998625,28.35225 L15.998625,28.373625 C15.998625,28.940625 15.4755,29.334375 14.64525,29.334375 C13.815,29.334375 13.14,29.052 12.50775,28.549125 C12.42225,28.483875 12.301875,28.429875 12.117375,28.429875 C11.768625,28.429875 11.485125,28.702125 11.485125,29.052 C11.485125,29.269125 11.595375,29.45475 11.746125,29.563875 C12.59775,30.196125 13.57875,30.5235 14.61375,30.5235 C16.218,30.5235 17.341875,29.676375 17.341875,28.2465 L17.341875,28.225125 C17.341875,26.958375 16.513875,26.382375 14.89725,25.990875 L14.89725,25.990875 Z" id="Path" stroke-width="0.5" fill="#FF0033" fill-rule="nonzero"></path>
                    <path d="M22.54275,22.653 C20.19825,22.653 18.54225,24.451875 18.54225,26.5995 L18.54225,26.618625 C18.54225,28.76625 20.176875,30.544875 22.5225,30.544875 C24.86475,30.544875 26.521875,28.744875 26.521875,26.5995 L26.521875,26.578125 C26.521875,24.431625 24.88725,22.653 22.54275,22.653 L22.54275,22.653 Z M25.115625,26.618625 C25.115625,28.101375 24.05925,29.300625 22.54275,29.300625 C21.02625,29.300625 19.947375,28.078875 19.947375,26.598375 L19.947375,26.575875 C19.947375,25.093125 21.007125,23.8815 22.521375,23.8815 C24.037875,23.8815 25.115625,25.11225 25.115625,26.598375 L25.115625,26.6175 L25.115625,26.618625 Z" id="Shape" stroke-width="0.5" fill="#FF0033" fill-rule="nonzero"></path>
                    <path d="M31.0725,25.990875 C29.599875,25.641 29.251125,25.38 29.251125,24.7905 L29.251125,24.769125 C29.251125,24.26625 29.710125,23.864625 30.49425,23.864625 C31.093875,23.864625 31.65975,24.062625 32.24925,24.44175 C32.358375,24.505875 32.4675,24.539625 32.598,24.539625 C32.947875,24.539625 33.23025,24.26625 33.23025,23.9175 C33.23025,23.6565 33.089625,23.472 32.934375,23.380875 C32.24925,22.92525 31.47525,22.6755 30.5145,22.6755 C28.999125,22.6755 27.91125,23.578875 27.91125,24.886125 L27.91125,24.9075 C27.91125,26.314875 28.825875,26.793 30.450375,27.1845 C31.86675,27.513 32.171625,27.806625 32.171625,28.35225 L32.171625,28.373625 C32.171625,28.940625 31.6485,29.334375 30.819375,29.334375 C29.99025,29.334375 29.31525,29.052 28.683,28.549125 C28.596375,28.483875 28.476,28.429875 28.2915,28.429875 C27.94275,28.429875 27.660375,28.702125 27.660375,29.052 C27.660375,29.269125 27.770625,29.45475 27.921375,29.563875 C28.773,30.196125 29.752875,30.5235 30.790125,30.5235 C32.391,30.5235 33.5137511,29.676375 33.5137511,28.2465 L33.5137511,28.225125 C33.514875,26.958375 32.686875,26.382375 31.073625,25.990875 L31.0725,25.990875 Z" id="Path" stroke-width="0.5" fill="#FF0033" fill-rule="nonzero"></path>
                    <circle id="Oval" stroke-width="2" cx="22.5" cy="22.5" r="22.5"></circle>
                </g>
            </g>
        </g>
    </g>
</svg>
