<svg width="47px" height="47px" viewBox="0 0 47 47" version="1.1" xmlns="http://www.w3.org/2000/svg" xmlns:xlink="http://www.w3.org/1999/xlink">
    <g id="Funnels-2020" stroke="none" stroke-width="1" fill="none" fill-rule="evenodd">
        <g id="Resultat_1_privat" transform="translate(-159.000000, -365.000000)" stroke="#FF0033">
            <g id="Group-2" transform="translate(160.000000, 366.000000)">
                <g id="brand">
                    <g id="smoke-alarm" transform="translate(11.250000, 6.750000)" fill="#FF0033" fill-rule="nonzero" stroke-width="0.5">
                        <path d="M17.9477843,29.0238095 L3.97462626,29.0238095 C3.63896062,29.0238095 3.36784607,28.7537949 3.36784607,28.4226717 C3.36784607,28.0915485 3.64039509,27.8215338 3.97462626,27.8215338 L17.9477843,27.8215338 C18.2848844,27.8215338 18.5559989,28.0915485 18.5559989,28.4226717 C18.5559989,28.7537949 18.2834499,29.0238095 17.9477843,29.0238095 Z M5.72037447,26.2938195 C5.69885744,26.2938195 5.67447147,26.2923984 5.65151998,26.2895561 C5.513811,26.2725025 2.23748486,25.8461636 1.83583367,20.8267338 C1.66369744,18.6524054 0.77719589,14.7798271 0.104430146,13.7964054 C-0.0146307424,13.6216065 -0.0332788334,13.3984891 0.0556582159,13.2066366 C0.144595265,13.0147841 0.328207238,12.8826191 0.537639644,12.8584599 C0.628011162,12.8499331 2.45265514,12.6651862 3.87277899,14.1829527 C4.15106589,12.9124628 4.36767064,10.5860736 3.29038477,7.77650028 C3.17419281,7.47095741 3.32481201,7.12846516 3.62748487,7.00482689 C4.11950758,6.80302648 7.0773817,7.69407476 8.23786675,9.55717572 C8.39709275,9.27152866 8.56205664,8.85655881 8.60652516,8.55812158 C8.71267583,7.84755676 8.54627748,7.11283274 8.36983785,6.33547482 C8.2034395,5.58796063 8.02843434,4.8191295 8.0757718,4.00055883 C8.19339822,1.95271102 9.31945602,1.39847046 10.4082176,0.864125712 C10.5674436,0.785963581 10.7309731,0.706380322 10.8959369,0.618270284 C11.0910247,0.51452782 11.3291464,0.525896857 11.5156274,0.646692877 C11.7021083,0.767488896 11.80539,0.979237212 11.7881764,1.19951231 C11.7867419,1.22509264 11.5859163,3.85702473 13.0132125,4.84897322 C14.6341619,5.97877129 16.498971,8.56096384 16.2694561,11.1332085 C16.9164014,10.6272863 17.6293323,9.80729453 17.7828204,8.59507095 C17.8172476,8.32931971 18.0223766,8.11757139 18.2891878,8.0749375 C18.5516955,8.03514587 18.8314169,8.2042603 18.9504778,8.43874669 C18.9777327,8.49559188 21.3646883,13.4681245 19.3922941,16.8461496 C20.0837079,16.597452 20.9529959,16.148375 21.7706429,15.3468579 C21.9571238,15.1649533 22.2411486,15.1194771 22.4764014,15.2402731 C23.1491672,15.5841865 23.065968,18.8613115 22.8206739,20.1460127 C22.3516027,22.6116726 20.8152869,25.6486266 16.1604365,26.1232839 C15.8219019,26.1588122 15.5278358,25.9172201 15.4934086,25.5889392 C15.4589814,25.2606582 15.7014065,24.9607999 16.0356377,24.9266928 C18.0740175,24.7192078 19.5974231,23.9262175 20.5556481,22.571881 C21.8610144,20.7272547 21.8739247,18.2914385 21.7534293,16.9427865 C19.9488679,18.2630159 18.210292,18.3539682 18.1256584,18.3582316 C17.8029029,18.3681795 17.5074024,18.1152184 17.4930577,17.7826741 C17.4901888,17.7329345 17.4944922,17.6817739 17.5045335,17.6334555 C17.4643684,17.4359184 17.5217471,17.2255913 17.6781042,17.0763726 C19.4970103,15.3454367 18.9662569,12.3084827 18.4139865,10.4823311 C17.4514582,12.1919501 15.681324,12.8811979 15.5866491,12.9181473 C15.2753694,13.0375222 14.9224901,12.8826191 14.8019948,12.5699706 C14.769002,12.4861239 14.7575262,12.3980139 14.7632641,12.3141672 C14.7560918,12.2246361 14.7704365,12.1322626 14.8091671,12.0441526 C15.7415717,9.81440018 13.9255345,6.95650848 12.3146263,5.83665832 C11.0006531,4.92287196 10.6563807,3.22462204 10.5803539,2.12750996 C9.79426511,2.53253191 9.3567522,2.89207771 9.28933218,4.07019418 C9.252036,4.72249268 9.39978626,5.37905458 9.55614333,6.07398697 C9.74836212,6.92524363 9.94631877,7.80350174 9.80717533,8.73434166 C9.7584034,9.0626226 9.27068409,10.8774052 8.29094208,11.018097 C8.13888842,11.0394139 7.62247974,11.0578886 7.32124135,10.4141169 C6.85073567,9.40937824 5.66299572,8.77981781 4.79083885,8.4486946 C5.96136518,12.4989141 4.86973462,15.8271997 4.33467786,16.071634 C4.04061181,16.2066413 3.69347042,16.0886875 3.54141676,15.8058827 C2.99201531,14.7741426 2.21883677,14.3463826 1.61205658,14.1701625 C2.2948636,15.962207 2.9059472,19.0261625 3.04078724,20.7343603 C3.35923925,24.720629 5.69168509,25.083017 5.78922896,25.0972283 C6.11915672,25.1412833 6.35584403,25.4411417 6.31424444,25.7680015 C6.27694826,26.0735444 6.01730945,26.2966617 5.71463659,26.2966617 L5.72037447,26.2938195 Z M12.4107357,25.3814543 C12.1051939,25.3814543 11.8426862,25.1540735 11.8068245,24.8471095 C11.7709628,24.5159863 12.010519,24.2175491 12.3447502,24.1820208 C14.2411176,23.9731148 14.9755655,22.1085927 15.2567213,20.8381028 C14.358744,21.3127601 13.3374024,21.7788906 13.171004,21.8527894 C12.968744,21.9451628 12.7320567,21.9195825 12.5541826,21.7888385 C12.3763085,21.6580946 12.285937,21.4378195 12.3174953,21.2189655 C12.7263188,18.4761853 11.6289504,16.9299963 10.6578152,16.1242158 C11.2201268,19.1256416 9.13010618,21.1663837 9.10572021,21.1905429 C8.92067377,21.3795532 8.65386262,21.4861379 8.34832082,21.487559 C8.34545189,21.487559 8.34114848,21.487559 8.33971401,21.487559 C7.72863042,21.487559 6.95975528,21.0171651 6.32572019,20.5268754 C6.75606075,23.153123 8.96657676,24.1194911 8.9923972,24.129439 C9.30080793,24.260183 9.44425479,24.611202 9.31371815,24.918166 C9.18318151,25.22513 8.82599885,25.3658218 8.51615364,25.2350779 C8.47885746,25.2180243 4.74637033,23.5908309 5.05621553,19.0986401 C5.07342916,18.8641537 5.22548282,18.6595111 5.44925991,18.5756644 C5.67160254,18.49466 5.92263453,18.5472418 6.09190182,18.7120929 C6.91528676,19.5264001 7.93662835,20.2469129 8.29954889,20.2795989 C8.63808347,19.9257376 10.3953074,17.8864165 9.03112785,15.0512629 C8.92641164,14.8324089 8.96370783,14.5723422 9.12580277,14.3918588 C9.28789772,14.2113753 9.54466758,14.1431611 9.77561702,14.2227443 C9.81865107,14.2369556 13.7519638,15.6197148 13.6185582,20.3094426 C14.3773921,19.94137 15.292583,19.4738183 15.6741516,19.1952769 C15.8635015,19.0560062 16.113099,19.0375315 16.318228,19.1455374 C16.5262259,19.2535433 16.6510247,19.4709761 16.6409834,19.7011991 C16.6323766,19.9172108 16.3942548,24.9465886 12.4781557,25.378612 C12.4552042,25.3800331 12.4322527,25.3828754 12.4107357,25.3828754 L12.4107357,25.3814543 Z" id="Shape"></path>
                    </g>
                    <circle id="Oval" stroke-width="2" cx="22.5" cy="22.5" r="22.5"></circle>
                </g>
            </g>
        </g>
    </g>
</svg>
