<svg width="47px" height="47px" viewBox="0 0 47 47" version="1.1" xmlns="http://www.w3.org/2000/svg" xmlns:xlink="http://www.w3.org/1999/xlink">
    <g id="Funnels-2020" stroke="none" stroke-width="1" fill="none" fill-rule="evenodd">
        <g id="Resultat_1_privat" transform="translate(-62.000000, -365.000000)" stroke="#FF0033" stroke-width="2">
            <g id="Group-5" transform="translate(60.000000, 366.000000)">
                <g id="Verisure" transform="translate(3.000000, 0.000000)">
                    <g id="Group">
                        <circle id="Oval" cx="22.5" cy="22.5" r="22.5"></circle>
                    </g>
                    <g id="Group-4" transform="translate(11.250000, 11.250000)">
                        <path d="M20.7796241,2.78385093 C17.2821856,2.56024845 13.8598888,1.6652795 10.6994721,0.14757764 L10.8638911,0.21931677 L10.3996491,0 L9.93633706,0.218757764 C6.85162007,1.69024845 3.51525267,2.55931677 0.105789477,2.77937888 L0.0219060061,2.7842236 C0.0219060061,2.7842236 -0.0273825077,4.52906832 0.0219060061,5.3552795 L0.07119452,6.02329193 C0.944624184,13.1934783 4.49432715,19.7664596 10.0070149,24.4218634 L10.3998351,24.75 L10.7952592,24.4218634 C16.3161307,19.7731677 19.8689956,13.1975776 20.7349855,6.02459627 L20.784274,5.35658385 C20.8315165,4.53130435 20.7805541,2.78664596 20.7805541,2.78664596 L20.7796241,2.78385093 Z" id="Path"></path>
                        <polyline id="Path-3" stroke-linecap="round" points="6.81521739 10.7608696 10.3327596 14.3478261 14.7065217 7.17391304"></polyline>
                    </g>
                </g>
            </g>
        </g>
    </g>
</svg>
